<svg width="1200" height="640" viewBox="0 0 1200 640" xmlns="http://www.w3.org/2000/svg">
<defs>
  <radialGradient id="termGlow" cx="50%" cy="50%" r="50%">
    <stop offset="0%" stop-color="#F5F1E8" stop-opacity="0.9"/>
    <stop offset="100%" stop-color="#F5F1E8" stop-opacity="0"/>
  </radialGradient>
</defs>
<rect width="1200" height="640" fill="#0B0E17"/>
<g stroke="#FFFFFF" stroke-opacity="0.03"><line x1="0" y1="0" x2="0" y2="640"/><line x1="60" y1="0" x2="60" y2="640"/><line x1="120" y1="0" x2="120" y2="640"/><line x1="180" y1="0" x2="180" y2="640"/><line x1="240" y1="0" x2="240" y2="640"/><line x1="300" y1="0" x2="300" y2="640"/><line x1="360" y1="0" x2="360" y2="640"/><line x1="420" y1="0" x2="420" y2="640"/><line x1="480" y1="0" x2="480" y2="640"/><line x1="540" y1="0" x2="540" y2="640"/><line x1="600" y1="0" x2="600" y2="640"/><line x1="660" y1="0" x2="660" y2="640"/><line x1="720" y1="0" x2="720" y2="640"/><line x1="780" y1="0" x2="780" y2="640"/><line x1="840" y1="0" x2="840" y2="640"/><line x1="900" y1="0" x2="900" y2="640"/><line x1="960" y1="0" x2="960" y2="640"/><line x1="1020" y1="0" x2="1020" y2="640"/><line x1="1080" y1="0" x2="1080" y2="640"/><line x1="1140" y1="0" x2="1140" y2="640"/><line x1="0" y1="0" x2="1200" y2="0"/><line x1="0" y1="60" x2="1200" y2="60"/><line x1="0" y1="120" x2="1200" y2="120"/><line x1="0" y1="180" x2="1200" y2="180"/><line x1="0" y1="240" x2="1200" y2="240"/><line x1="0" y1="300" x2="1200" y2="300"/><line x1="0" y1="360" x2="1200" y2="360"/><line x1="0" y1="420" x2="1200" y2="420"/><line x1="0" y1="480" x2="1200" y2="480"/><line x1="0" y1="540" x2="1200" y2="540"/><line x1="0" y1="600" x2="1200" y2="600"/></g>
<text x="40" y="50" font-family="JetBrains Mono, monospace" font-size="26" font-weight="700" fill="#E6E9F0">JAY DURGA — CAREER TRANSIT MAP</text>
<text x="40" y="74" font-family="JetBrains Mono, monospace" font-size="13" fill="#7A8296" letter-spacing="2">AI / ML ENGINEER · FINAL-YEAR B.TECH CS (AI)</text>
<rect x="40" y="84" width="16" height="16" fill="#E8440A" rx="2"/>
<text x="62" y="96" font-family="JetBrains Mono, monospace" font-size="12" fill="#E6E9F0">AI / ML LINE</text>
<rect x="220" y="84" width="16" height="16" fill="#3B82F6" rx="2"/>
<text x="242" y="96" font-family="JetBrains Mono, monospace" font-size="12" fill="#E6E9F0">SYSTEMS LINE</text>
<rect x="400" y="84" width="16" height="16" fill="#22C55E" rx="2"/>
<text x="422" y="96" font-family="JetBrains Mono, monospace" font-size="12" fill="#E6E9F0">DEPLOYMENT LINE</text>
<path d="M 80,180 L 250,180 L 420,180 L 580,180 L 750,180 L 900,180 L 1080,320 " stroke="#E8440A" stroke-width="6" fill="none" stroke-linecap="round" stroke-linejoin="round"/>
<path d="M 80,340 L 250,340 L 420,340 L 580,340 L 820,340 L 1080,320 " stroke="#3B82F6" stroke-width="6" fill="none" stroke-linecap="round" stroke-linejoin="round"/>
<path d="M 80,500 L 250,500 L 420,500 L 580,500 L 820,500 L 820,340 " stroke="#22C55E" stroke-width="6" fill="none" stroke-linecap="round" stroke-linejoin="round"/>
<line x1="580" y1="180" x2="580" y2="340" stroke="#FFFFFF" stroke-opacity="0.25" stroke-width="2" stroke-dasharray="4,4"/>
<line x1="820" y1="340" x2="820" y2="500" stroke="#FFFFFF" stroke-opacity="0.25" stroke-width="2" stroke-dasharray="4,4"/>
<circle cx="80" cy="180" r="7" fill="#0B0E17" stroke="#E8440A" stroke-width="3.5"/><text x="80" y="164" text-anchor="middle" font-family="JetBrains Mono, monospace" font-size="12.5" font-weight="500" fill="#7A8296">B.TECH CS (AI)</text>
<circle cx="250" cy="180" r="7" fill="#0B0E17" stroke="#E8440A" stroke-width="3.5"/><text x="250" y="164" text-anchor="middle" font-family="JetBrains Mono, monospace" font-size="12.5" font-weight="500" fill="#7A8296">INFOSYS · AZURE AI FOUNDRY</text>
<circle cx="420" cy="180" r="7" fill="#0B0E17" stroke="#E8440A" stroke-width="3.5"/><text x="420" y="164" text-anchor="middle" font-family="JetBrains Mono, monospace" font-size="12.5" font-weight="500" fill="#7A8296">DOCUMENT CLUSTERING (NLP)</text>
<circle cx="580" cy="180" r="13" fill="none" stroke="#E8440A" stroke-width="2"/><circle cx="580" cy="180" r="10" fill="#0B0E17" stroke="#E8440A" stroke-width="3.5"/><text x="580" y="164" text-anchor="middle" font-family="JetBrains Mono, monospace" font-size="12.5" font-weight="700" fill="#E6E9F0">SHADOW AGENT PRO</text>
<circle cx="750" cy="180" r="7" fill="#0B0E17" stroke="#E8440A" stroke-width="3.5"/><text x="750" y="164" text-anchor="middle" font-family="JetBrains Mono, monospace" font-size="12.5" font-weight="500" fill="#7A8296">RANDOM FOREST CLASSIFIER</text>
<circle cx="80" cy="340" r="7" fill="#0B0E17" stroke="#3B82F6" stroke-width="3.5"/><text x="80" y="364" text-anchor="middle" font-family="JetBrains Mono, monospace" font-size="12.5" font-weight="500" fill="#7A8296">PYTHON FOUNDATIONS</text>
<circle cx="250" cy="340" r="7" fill="#0B0E17" stroke="#3B82F6" stroke-width="3.5"/><text x="250" y="364" text-anchor="middle" font-family="JetBrains Mono, monospace" font-size="12.5" font-weight="500" fill="#7A8296">FLASK · FASTAPI APIS</text>
<circle cx="420" cy="340" r="7" fill="#0B0E17" stroke="#3B82F6" stroke-width="3.5"/><text x="420" y="364" text-anchor="middle" font-family="JetBrains Mono, monospace" font-size="12.5" font-weight="500" fill="#7A8296">REACT · VITE DASHBOARDS</text>
<circle cx="580" cy="340" r="13" fill="none" stroke="#3B82F6" stroke-width="2"/><circle cx="580" cy="340" r="10" fill="#0B0E17" stroke="#3B82F6" stroke-width="3.5"/><text x="580" y="324" text-anchor="middle" font-family="JetBrains Mono, monospace" font-size="12.5" font-weight="700" fill="#E6E9F0"></text>
<circle cx="820" cy="340" r="13" fill="none" stroke="#3B82F6" stroke-width="2"/><circle cx="820" cy="340" r="10" fill="#0B0E17" stroke="#3B82F6" stroke-width="3.5"/><text x="820" y="364" text-anchor="middle" font-family="JetBrains Mono, monospace" font-size="12.5" font-weight="700" fill="#E6E9F0">AI CAREER GPS</text>
<circle cx="80" cy="500" r="7" fill="#0B0E17" stroke="#22C55E" stroke-width="3.5"/><text x="80" y="524" text-anchor="middle" font-family="JetBrains Mono, monospace" font-size="12.5" font-weight="500" fill="#7A8296">NEO4J AURADB</text>
<circle cx="250" cy="500" r="7" fill="#0B0E17" stroke="#22C55E" stroke-width="3.5"/><text x="250" y="524" text-anchor="middle" font-family="JetBrains Mono, monospace" font-size="12.5" font-weight="500" fill="#7A8296">LANGCHAIN · RAG PIPELINES</text>
<circle cx="420" cy="500" r="7" fill="#0B0E17" stroke="#22C55E" stroke-width="3.5"/><text x="420" y="524" text-anchor="middle" font-family="JetBrains Mono, monospace" font-size="12.5" font-weight="500" fill="#7A8296">OLLAMA · MISTRAL</text>
<circle cx="580" cy="500" r="7" fill="#0B0E17" stroke="#22C55E" stroke-width="3.5"/><text x="580" y="524" text-anchor="middle" font-family="JetBrains Mono, monospace" font-size="12.5" font-weight="500" fill="#7A8296">DOCKER</text>
<circle cx="820" cy="500" r="13" fill="none" stroke="#22C55E" stroke-width="2"/><circle cx="820" cy="500" r="10" fill="#0B0E17" stroke="#22C55E" stroke-width="3.5"/><text x="820" y="484" text-anchor="middle" font-family="JetBrains Mono, monospace" font-size="12.5" font-weight="700" fill="#E6E9F0"></text>
<circle cx="1080" cy="320" r="26" fill="url(#termGlow)"><animate attributeName="r" values="22;30;22" dur="2.5s" repeatCount="indefinite"/></circle>
<circle cx="1080" cy="320" r="13" fill="#0B0E17" stroke="#F5F1E8" stroke-width="4"/>
<text x="1080" y="280" text-anchor="middle" font-family="JetBrains Mono, monospace" font-size="15" font-weight="700" fill="#F5F1E8">OPEN TO ROLES</text>
<text x="1080" y="360" text-anchor="middle" font-family="JetBrains Mono, monospace" font-size="11" fill="#7A8296">YOU ARE HERE →</text>
</svg>
